<?xml version="1.0" encoding="UTF-8" standalone="no"?>
<!-- Created with Inkscape (http://www.inkscape.org/) -->

<svg
   width="48.247559mm"
   height="48.247547mm"
   viewBox="0 0 48.247559 48.247547"
   version="1.1"
   id="svg5"
   xml:space="preserve"
   inkscape:version="1.2.2 (b0a8486541, 2022-12-01)"
   sodipodi:docname="TCC2.svg"
   xmlns:inkscape="http://www.inkscape.org/namespaces/inkscape"
   xmlns:sodipodi="http://sodipodi.sourceforge.net/DTD/sodipodi-0.dtd"
   xmlns="http://www.w3.org/2000/svg"
   xmlns:svg="http://www.w3.org/2000/svg"><sodipodi:namedview
     id="namedview7"
     pagecolor="#505050"
     bordercolor="#ffffff"
     borderopacity="1"
     inkscape:showpageshadow="0"
     inkscape:pageopacity="0"
     inkscape:pagecheckerboard="1"
     inkscape:deskcolor="#505050"
     inkscape:document-units="mm"
     showgrid="false"
     inkscape:zoom="0.36031892"
     inkscape:cx="2261.8851"
     inkscape:cy="201.21064"
     inkscape:window-width="1366"
     inkscape:window-height="699"
     inkscape:window-x="0"
     inkscape:window-y="32"
     inkscape:window-maximized="1"
     inkscape:current-layer="layer1" /><defs
     id="defs2" /><g
     inkscape:label="Camada 1"
     inkscape:groupmode="layer"
     id="layer1"
     transform="translate(-770.09798,17.245647)"><g
       id="g338"
       transform="translate(52.348938)"
       style="display:none"><rect
         style="display:inline;opacity:1;fill:#f9f9f9;stroke-width:0.595"
         id="rect334"
         width="48.247547"
         height="48.247547"
         x="717.74902"
         y="-17.245647"
         inkscape:export-filename="rect3228.svg"
         inkscape:export-xdpi="96"
         inkscape:export-ydpi="96" /><rect
         style="display:inline;opacity:1;fill:#b3b3b3;stroke-width:0.493626"
         id="rect336"
         width="40.027294"
         height="40.027294"
         x="721.85913"
         y="-13.135521"
         inkscape:export-filename="rect3228.svg"
         inkscape:export-xdpi="96"
         inkscape:export-ydpi="96" /></g><path
       style="fill:#1a1a1a;stroke-width:0.0781943"
       d="m 792.38165,26.805184 c -3.70537,-0.353294 -7.2292,-1.725057 -10.27567,-4.000135 -0.96492,-0.720597 -3.09555,-2.851231 -3.81615,-3.816148 -5.44235,-7.287616 -5.44235,-16.9389043 0,-24.2265187 0.7206,-0.9649182 2.85123,-3.0955519 3.81615,-3.8161502 7.2876,-5.4423371 16.93891,-5.4423371 24.2265,0 0.96493,0.7205983 3.09556,2.851232 3.81618,3.8161502 5.44233,7.2876144 5.44233,16.9389027 0,24.2265187 -0.72062,0.964917 -2.85125,3.095551 -3.81618,3.816148 -4.0644,3.035274 -9.05683,4.466759 -13.95083,4.000135 z m 3.55834,-5.267101 c 2.77249,-0.330061 5.17353,-1.323852 7.41265,-3.068079 1.27678,-0.994589 1.62475,-1.987713 1.29906,-3.707635 -0.23802,-1.257408 -0.83928,-2.435043 -1.70428,-3.338525 -0.87364,-0.912495 -1.94764,-1.5495137 -3.21548,-1.9071999 -0.61895,-0.1746215 -0.67696,-0.1764909 -5.51268,-0.1764909 -4.83574,0 -4.89375,0.00184 -5.51273,0.1764909 -2.22541,0.6278349 -3.95258,2.2075499 -4.65908,4.2612749 -0.2888,0.839413 -0.41392,1.675313 -0.35945,2.401269 0.0838,1.115953 0.62321,1.81854 2.24262,2.920317 2.92655,1.991081 6.48537,2.858114 10.00937,2.438578 z m -0.54392,-15.56707 c 2.18824,-0.4151015 4.05573,-1.903956 4.90417,-3.9098286 0.7126,-1.68476482 0.69039,-3.7325902 -0.058,-5.3316391 -1.1329,-2.421086 -3.3664,-3.8479962 -6.02312,-3.8479962 -2.72142,0 -4.9987,1.4978555 -6.08008,3.9990899 -0.70237,1.624599 -0.68951,3.6100589 0.034,5.2508334 0.66975,1.5187045 2.02913,2.8423371 3.56242,3.4687102 1.12422,0.4592637 2.47359,0.5959666 3.66039,0.3708304 z"
       id="path354" /></g></svg>
