<?xml version="1.0" encoding="UTF-8" standalone="no"?>
<!-- Created with Inkscape (http://www.inkscape.org/) -->

<svg
   width="85.774864mm"
   height="60.328346mm"
   viewBox="0 0 85.774864 60.328346"
   version="1.1"
   id="svg5"
   xml:space="preserve"
   xmlns:xlink="http://www.w3.org/1999/xlink"
   xmlns="http://www.w3.org/2000/svg"
   xmlns:svg="http://www.w3.org/2000/svg"><defs
     id="defs2"><linearGradient
       id="linearGradient26408"><stop
         style="stop-color:#291d76;stop-opacity:1;"
         offset="0"
         id="stop26404" /><stop
         style="stop-color:#291d76;stop-opacity:0;"
         offset="1"
         id="stop26406" /></linearGradient><linearGradient
       xlink:href="#linearGradient26408"
       id="linearGradient974"
       gradientUnits="userSpaceOnUse"
       gradientTransform="matrix(0.80474979,0,0,0.80474979,356.81677,-50.269621)"
       x1="1107.5724"
       y1="344.35474"
       x2="1125.2809"
       y2="401.40253" /></defs><g
     id="layer1"
     transform="translate(-1202.7852,-205.11884)"><path
       style="fill:#00ffff;fill-opacity:1;stroke:none;stroke-width:0.3"
       d="m 1218.6113,219.81317 c -2.734,0 -4.935,2.55762 -4.935,5.73453 v 34.16494 c 0,3.1769 2.201,5.73453 4.935,5.73453 h 54.1228 c 2.734,0 4.9346,-2.55763 4.9346,-5.73453 V 225.5477 c 0,-3.17691 -2.2006,-5.73453 -4.9346,-5.73453 z"
       id="path941" /><g
       id="g960"
       transform="translate(204.83841)"><rect
         style="fill:#1a1a1a;fill-opacity:1;stroke-width:0.299999"
         id="rect943"
         width="7.1935163"
         height="27.438751"
         x="997.94666"
         y="228.9108"
         ry="2.5343182" /><rect
         style="fill:#00ff00;fill-opacity:1;stroke-width:0.3"
         id="rect956"
         width="3.7751613"
         height="5.3405709"
         x="999.65582"
         y="239.95988"
         ry="0.49326977" /><rect
         style="fill:#1a1a1a;fill-opacity:1;stroke-width:0.299999"
         id="rect959"
         width="7.1935163"
         height="27.438751"
         x="1076.5281"
         y="228.9108"
         ry="2.5343182" /><rect
         style="fill:#00ff00;fill-opacity:1;stroke-width:0.3"
         id="rect960"
         width="3.7751613"
         height="5.3405709"
         x="1078.2373"
         y="239.95988"
         ry="0.49326977" /></g><g
       id="g974"
       transform="translate(200.65801,3.4557888)"><path
         style="fill:#00ffff;fill-opacity:1;stroke:none;stroke-width:0.3"
         d="m 1061.619,201.66304 c -2.7279,-3e-5 -16.2601,12.47986 -12.4804,12.47986 h 24.9603 c 3.7796,0 -9.8272,-12.47983 -12.4799,-12.47986 z"
         id="path972" /><path
         style="fill:#00ffff;fill-opacity:1;stroke:none;stroke-width:0.3"
         d="m 1028.4134,201.66304 c -2.7279,-3e-5 -16.2601,12.47986 -12.4804,12.47986 h 24.9603 c 3.7796,0 -9.8272,-12.47983 -12.4799,-12.47986 z"
         id="path974" /></g><text
       xml:space="preserve"
       style="font-weight:bold;font-size:31.7622px;line-height:0.5;font-family:'Linux Biolinum O';-inkscape-font-specification:'Linux Biolinum O Bold';letter-spacing:3.52475px;fill:url(#linearGradient974);fill-opacity:1;stroke:none;stroke-width:6.71274"
       x="1234.7543"
       y="257.51871"
       id="text974"><tspan
         id="tspan974"
         style="font-style:normal;font-variant:normal;font-weight:bold;font-stretch:normal;font-family:Gameplay;-inkscape-font-specification:'Gameplay Bold';fill:url(#linearGradient974);fill-opacity:1;stroke-width:6.71274"
         x="1234.7543"
         y="257.51871">?</tspan></text></g></svg>
